<svg width="512" height="512" viewBox="0 0 512 512" fill="none" xmlns="http://www.w3.org/2000/svg">
  <defs>
    <linearGradient id="gold" x1="74" y1="36" x2="438" y2="470" gradientUnits="userSpaceOnUse">
      <stop stop-color="#FCE08A"/>
      <stop offset="1" stop-color="#B67A18"/>
    </linearGradient>
    <linearGradient id="navy" x1="256" y1="58" x2="256" y2="462" gradientUnits="userSpaceOnUse">
      <stop stop-color="#071226"/>
      <stop offset="1" stop-color="#0C1C3C"/>
    </linearGradient>
    <clipPath id="shieldClip">
      <path d="M256 38C212 84 136 87 83 122C76 265 100 360 256 468C412 360 436 265 429 122C376 87 300 84 256 38Z"/>
    </clipPath>
  </defs>
  <path d="M256 38C212 84 136 87 83 122C76 265 100 360 256 468C412 360 436 265 429 122C376 87 300 84 256 38Z" fill="url(#navy)" stroke="url(#gold)" stroke-width="14"/>
  <path d="M256 62C217 102 151 108 105 138C100 257 120 338 256 439C392 338 412 257 407 138C361 108 295 102 256 62Z" stroke="white" stroke-width="7"/>
  <g clip-path="url(#shieldClip)">
    <rect x="125" y="260" width="262" height="170" fill="#09111E"/>
    <rect x="125" y="260" width="34" height="170" fill="#13264E"/>
    <rect x="193" y="260" width="34" height="170" fill="#13264E"/>
    <rect x="261" y="260" width="34" height="170" fill="#13264E"/>
    <rect x="329" y="260" width="34" height="170" fill="#13264E"/>
  </g>
  <path d="M192 128L212 89L236 121L256 76L276 121L300 89L320 128L303 125L293 155H219L209 125L192 128Z" fill="url(#gold)"/>
  <path d="M177 200H335" stroke="url(#gold)" stroke-width="7" stroke-linecap="round"/>
  <text x="256" y="182" text-anchor="middle" fill="white" font-size="54" font-weight="700" font-family="Georgia, serif">FC</text>
  <text x="256" y="255" text-anchor="middle" fill="white" font-size="96" font-weight="700" font-family="Georgia, serif" letter-spacing="3">DEVA</text>
  <circle cx="256" cy="346" r="62" fill="white" stroke="#0B1325" stroke-width="8"/>
  <path d="M256 304L277 319L270 344H242L235 319L256 304Z" fill="#0B1325"/>
  <path d="M235 319L214 334L222 360L242 344M277 319L298 334L290 360L270 344M242 344L232 371L256 388L280 371L270 344" stroke="#AAB4C8" stroke-width="4" fill="none"/>
</svg>
